<svg xmlns="http://www.w3.org/2000/svg" width="18.333" height="22" viewBox="0 0 18.333 22">
  <g id="_001-notification" data-name="001-notification" opacity="0.65">
    <g id="Group_31" data-name="Group 31" transform="translate(0)">
      <g id="Group_30" data-name="Group 30">
        <path id="Path_776" data-name="Path 776" d="M60.943,18.556l-1.574-2.624a7.793,7.793,0,0,1-1.111-4.01v-2.3a6.425,6.425,0,0,0-4.583-6.146V1.833a1.833,1.833,0,1,0-3.667,0V3.479a6.425,6.425,0,0,0-4.583,6.146v2.3a7.8,7.8,0,0,1-1.11,4.009l-1.574,2.624a.459.459,0,0,0,.392.695H60.55a.458.458,0,0,0,.393-.694Z" transform="translate(-42.675)" fill="#707070"/>
      </g>
    </g>
    <g id="Group_33" data-name="Group 33" transform="translate(6.279 20.167)">
      <g id="Group_32" data-name="Group 32">
        <path id="Path_777" data-name="Path 777" d="M188.815,469.333a3.189,3.189,0,0,0,5.773,0Z" transform="translate(-188.815 -469.333)" fill="#707070"/>
      </g>
    </g>
  </g>
</svg>
