<svg xmlns="http://www.w3.org/2000/svg" width="31.594" height="22" viewBox="0 0 31.594 22">
  <g id="_005-icon-84646" data-name="005-icon-84646" transform="translate(0.001 -59.368)" opacity="0.65">
    <path id="Path_769" data-name="Path 769" d="M31.535,69.643,25.474,59.7a.4.4,0,0,0-.492-.166l-.724.282-.1-.167a.6.6,0,0,0-.724-.245L15.8,62.384,8.161,59.409a.6.6,0,0,0-.724.245l-.1.167-.724-.282a.4.4,0,0,0-.492.166L.059,69.643a.4.4,0,0,0,.2.586L8.9,73.654,7.771,80.9a.4.4,0,0,0,.4.466H9.179a.4.4,0,0,0,.229-.071L15.8,76.909,22.185,81.3a.4.4,0,0,0,.229.071h1.009a.4.4,0,0,0,.4-.466L22.7,73.654l8.643-3.426a.4.4,0,0,0,.2-.586ZM16.12,72.689V67.518a.323.323,0,1,0-.646,0v5.171L3.722,68.032,8.193,60.7l7.387,2.878a.6.6,0,0,0,.432,0L23.4,60.7l4.471,7.333Z" transform="translate(0 0)" fill="#707070"/>
    <path id="Path_770" data-name="Path 770" d="M222.943,104.586a.323.323,0,0,0-.419-.184l-4.767,1.858a.323.323,0,1,0,.235.6L222.76,105A.323.323,0,0,0,222.943,104.586Z" transform="translate(-199.973 -41.375)" fill="#707070"/>
    <path id="Path_771" data-name="Path 771" d="M227.486,128.245a.323.323,0,1,0,.235.6l4.767-1.858a.323.323,0,0,0-.235-.6Z" transform="translate(-208.916 -61.583)" fill="#707070"/>
    <path id="Path_772" data-name="Path 772" d="M237.81,152.679a.323.323,0,0,0,.419.184L243,151a.323.323,0,0,0-.235-.6l-4.767,1.858A.323.323,0,0,0,237.81,152.679Z" transform="translate(-218.574 -83.658)" fill="#707070"/>
    <path id="Path_773" data-name="Path 773" d="M111.654,106.262l-4.767-1.858a.323.323,0,1,0-.235.6l4.767,1.858a.323.323,0,1,0,.235-.6Z" transform="translate(-97.845 -41.376)" fill="#707070"/>
    <path id="Path_774" data-name="Path 774" d="M101.926,128.245l-4.767-1.858a.323.323,0,1,0-.235.6l4.767,1.858a.323.323,0,0,0,.235-.6Z" transform="translate(-88.903 -61.583)" fill="#707070"/>
    <path id="Path_775" data-name="Path 775" d="M91.418,152.262,86.651,150.4a.323.323,0,0,0-.235.6l4.767,1.858a.323.323,0,0,0,.235-.6Z" transform="translate(-79.244 -83.659)" fill="#707070"/>
  </g>
</svg>
