<svg xmlns="http://www.w3.org/2000/svg" width="17.33" height="22" viewBox="0 0 17.33 22">
  <path id="Friends_Icon" data-name="Friends Icon" d="M1761.13,903.346a1.142,1.142,0,0,1,.443.086,1.327,1.327,0,0,1,.375.241.973.973,0,0,1,.256.378,1.3,1.3,0,0,1,.085.464l-.444,4.882v.069a1.027,1.027,0,0,1-.1.257,1,1,0,0,1-.154.206.621.621,0,0,1-.222.138.778.778,0,0,1-.273.051h-.273a.5.5,0,0,0-.188.035.313.313,0,0,0-.136.1l-.1.137a.281.281,0,0,0-.051.172v.035l-.409,5.087v.138a1.023,1.023,0,0,1-.1.258.746.746,0,0,1-.17.206.609.609,0,0,1-.222.12.924.924,0,0,1-.256.034h-1.74a.8.8,0,0,1-.222-.034.357.357,0,0,1-.187-.12,1.046,1.046,0,0,1-.12-.189.466.466,0,0,1-.051-.206v-.069l.273-3.128v-.069a.422.422,0,0,1,.034-.155.406.406,0,0,1,.085-.138,1.065,1.065,0,0,1,.119-.1.223.223,0,0,1,.137-.052v-.034h.034c.068-.023.131-.046.188-.069a1.161,1.161,0,0,0,.17-.086l.171-.1a.826.826,0,0,0,.153-.12q.136-.138.256-.275a2.12,2.12,0,0,0,.2-.275,1.267,1.267,0,0,0,.137-.31q.051-.172.085-.344v-.206l.512-5.569v-.24a.591.591,0,0,0-.017-.137c-.012-.046-.023-.1-.034-.155a.767.767,0,0,1-.017-.155v-.051a.015.015,0,0,0-.017-.017c-.012,0-.017-.012-.017-.035v-.069a.539.539,0,0,1,.051-.24,1.082,1.082,0,0,1,.119-.189.364.364,0,0,1,.171-.12.765.765,0,0,1,.239-.034Zm-3.685-1.1a.575.575,0,0,1-.17-.086.452.452,0,0,1-.12-.138,1.106,1.106,0,0,1-.085-.172.412.412,0,0,1-.034-.155v-.1a.151.151,0,0,1,.017-.069.134.134,0,0,0,.017-.052c0-.011.011-.028.034-.052v-.034l.034-.034a4.692,4.692,0,0,0,.239-.481,3.7,3.7,0,0,0,.171-.5,4.094,4.094,0,0,0,.1-.533,4.513,4.513,0,0,0,.034-.55q0-.172-.017-.344c-.012-.114-.023-.224-.034-.326a1.916,1.916,0,0,0-.068-.327c-.034-.114-.063-.217-.085-.309,0-.023-.006-.034-.017-.034s-.017-.012-.017-.035v-.172a.5.5,0,0,1,.034-.189.672.672,0,0,1,.1-.172.575.575,0,0,1,.154-.137.354.354,0,0,1,.188-.052h.068a.271.271,0,0,1,.1-.034h.1a2.437,2.437,0,0,1,1.006.206,2.487,2.487,0,0,1,.8.567,2.884,2.884,0,0,1,.546.825,2.487,2.487,0,0,1,.2,1.014,2.526,2.526,0,0,1-.2,1,2.6,2.6,0,0,1-.546.825,2.629,2.629,0,0,1-.8.55,2.428,2.428,0,0,1-1.006.207h-.154a.868.868,0,0,1-.171-.017l-.17-.034a.79.79,0,0,0-.154-.017c0-.023-.006-.035-.017-.035h-.085Zm-.511,8.869h-.341a.565.565,0,0,0-.136.017.379.379,0,0,0-.136.069,1.083,1.083,0,0,0-.119.1.457.457,0,0,0-.085.12.071.071,0,0,1-.017.052.048.048,0,0,0-.017.035v.154l-.478,5.775v.172a.751.751,0,0,1-.119.292,1.72,1.72,0,0,1-.187.224.667.667,0,0,1-.239.155.862.862,0,0,1-.307.051H1752.5a.859.859,0,0,1-.307-.051.839.839,0,0,1-.256-.155.751.751,0,0,1-.188-.241,1.292,1.292,0,0,1-.1-.275v-.137l-.478-5.809v-.12a.051.051,0,0,0-.017-.034.048.048,0,0,1-.017-.035v-.052a.462.462,0,0,0-.085-.12,1.13,1.13,0,0,0-.119-.1.393.393,0,0,0-.137-.069.724.724,0,0,0-.17-.017h-.307a.814.814,0,0,1-.563-.206.842.842,0,0,1-.187-.223.964.964,0,0,1-.1-.292v-.172l-.512-5.535a1.307,1.307,0,0,1,.1-.516,1.176,1.176,0,0,1,.29-.412,1.51,1.51,0,0,1,.426-.275,1.278,1.278,0,0,1,.512-.1h6.686a1.281,1.281,0,0,1,.512.1,1.3,1.3,0,0,1,.785,1.2l-.478,5.6v.069a1.245,1.245,0,0,1-.1.31.6.6,0,0,1-.187.223,1.543,1.543,0,0,1-.273.155.709.709,0,0,1-.29.069Zm-3.309-8.869a2.9,2.9,0,0,1-.717-.086,2.756,2.756,0,0,1-.631-.24,2.914,2.914,0,0,1-.546-.378,3.16,3.16,0,0,1-.46-.5,2.091,2.091,0,0,1-.239-.378,4.652,4.652,0,0,1-.187-.43,2.106,2.106,0,0,1-.12-.464,3.39,3.39,0,0,1-.034-.481,2.843,2.843,0,0,1,.017-.327,2.923,2.923,0,0,1,.051-.31,3.048,3.048,0,0,1,.085-.309,2.2,2.2,0,0,1,.119-.292,2.732,2.732,0,0,1,.443-.687,3.036,3.036,0,0,1,.615-.533,3.272,3.272,0,0,1,.75-.361,2.675,2.675,0,0,1,.853-.137,2.528,2.528,0,0,1,.836.137,3.412,3.412,0,0,1,.733.361,3.068,3.068,0,0,1,.614.533,3.7,3.7,0,0,1,.477.688c.023.092.052.189.085.292l.1.309a1.556,1.556,0,0,1,.068.31,3.019,3.019,0,0,1,.017.327,2.3,2.3,0,0,1-.051.481c-.034.161-.074.315-.119.464a2.873,2.873,0,0,1-.171.43,2.117,2.117,0,0,1-.239.378,3.183,3.183,0,0,1-.46.5,2.7,2.7,0,0,1-.563.378,3.139,3.139,0,0,1-.648.24,2.766,2.766,0,0,1-.682.086Zm-3.275,13.578v.069a.655.655,0,0,1-.034.206.513.513,0,0,1-.307.31.751.751,0,0,1-.239.034h-1.706a1.058,1.058,0,0,1-.29-.034.6.6,0,0,1-.222-.12.743.743,0,0,1-.171-.206.512.512,0,0,1-.068-.258l-.034-.1-.375-5.088v-.069a1.464,1.464,0,0,0-.068-.172.562.562,0,0,0-.1-.137.469.469,0,0,0-.154-.1.425.425,0,0,0-.154-.035h-.307a.644.644,0,0,1-.256-.051,1.36,1.36,0,0,1-.222-.121.534.534,0,0,1-.17-.189.511.511,0,0,1-.068-.258l-.034-.137-.409-4.847a1.293,1.293,0,0,1,.085-.464,1.031,1.031,0,0,1,.614-.619,1.27,1.27,0,0,1,.46-.086h1.228a.652.652,0,0,1,.2.034.488.488,0,0,1,.188.12.743.743,0,0,1,.136.189.539.539,0,0,1,.051.24v.034l-.034.035v.1q-.034.1-.051.172a.554.554,0,0,0-.017.138.586.586,0,0,1-.017.137.545.545,0,0,0-.017.137v.052c0,.012.005.017.017.017s.017.012.017.034l.478,5.535.034.172v.1a2.887,2.887,0,0,0,.188.532,1.753,1.753,0,0,0,.29.447,2.262,2.262,0,0,0,.392.343,1.541,1.541,0,0,0,.46.224c.022,0,.034.006.034.017s.011.017.034.017l.136.069a.224.224,0,0,1,.1.1l.068.137c.022.046.045.092.068.137v.069l.239,3.128Zm-1.3-13.475a2.426,2.426,0,0,1-1.007-.207,2.862,2.862,0,0,1-.819-.55,2.469,2.469,0,0,1-.563-.825,2.526,2.526,0,0,1-.2-1,2.487,2.487,0,0,1,.2-1.014,2.741,2.741,0,0,1,1.382-1.393,2.436,2.436,0,0,1,1.007-.206h.1a.073.073,0,0,1,.051.017.067.067,0,0,0,.051.017h.068a.356.356,0,0,1,.188.052.594.594,0,0,1,.154.137.717.717,0,0,1,.1.172.516.516,0,0,1,.034.189v.086a.049.049,0,0,1-.017.035.068.068,0,0,0-.017.051v.069a1.205,1.205,0,0,0-.1.309c-.023.115-.046.224-.068.327a2.721,2.721,0,0,0-.051.326,3.386,3.386,0,0,0-.017.344,2.991,2.991,0,0,0,.051.55c.034.183.073.361.119.533a3.6,3.6,0,0,0,.17.5,4.645,4.645,0,0,0,.239.481v.034l.034.034a.144.144,0,0,0,.017.069.137.137,0,0,1,.017.052.252.252,0,0,0,.017.068.292.292,0,0,1,.017.086.427.427,0,0,1-.034.155,1.177,1.177,0,0,1-.085.172.382.382,0,0,1-.136.138c-.057.035-.108.063-.153.086h-.085c-.012,0-.029.012-.051.035a.712.712,0,0,0-.171.017c-.046.012-.1.023-.153.034a.8.8,0,0,1-.154.017Z" transform="translate(-1744.96 -896.333)" fill="#7a7a7a" opacity="0.65"/>
</svg>
